HIERARCHY
ROOT hip
{
  OFFSET 0 0 0
  CHANNELS 6 Xposition Yposition Zposition Zrotation Yrotation Xrotation
  JOINT abdomen
  {
    OFFSET 0 20.6881 -0.73152
    CHANNELS 3 Zrotation Xrotation Yrotation
    JOINT chest
    {
      OFFSET 0 11.7043 -0.48768
      CHANNELS 3 Zrotation Xrotation Yrotation
      JOINT neck
      {
        OFFSET 0 22.1894 -2.19456
        CHANNELS 3 Zrotation Xrotation Yrotation
        JOINT head
        {
          OFFSET -0.24384 7.07133 1.2192
          CHANNELS 3 Zrotation Xrotation Yrotation
          JOINT leftEye
          {
            OFFSET 4.14528 8.04674 8.04672
            CHANNELS 3 Zrotation Xrotation Yrotation
            End Site
            {
              OFFSET 1 0 0
            }
          }
          JOINT rightEye
          {
            OFFSET -3.6576 8.04674 8.04672
            CHANNELS 3 Zrotation Xrotation Yrotation
            End Site
            {
              OFFSET 1 0 0
            }
          }
        }
      }
      JOINT rCollar
      {
        OFFSET -2.68224 19.2634 -4.8768
        CHANNELS 3 Zrotation Xrotation Yrotation
        JOINT rShldr
        {
          OFFSET -8.77824 -1.95073 1.46304
          CHANNELS 3 Zrotation Xrotation Yrotation
          JOINT rForeArm
          {
            OFFSET -28.1742 -1.7115 0.48768
            CHANNELS 3 Zrotation Xrotation Yrotation
            JOINT rHand
            {
              OFFSET -22.5879 0.773209 7.07136
              CHANNELS 3 Zrotation Xrotation Yrotation
              JOINT rThumb1
              {
                OFFSET -1.2192 -0.487915 3.41376
                CHANNELS 3 Zrotation Xrotation Yrotation
                JOINT rThumb2
                {
                  OFFSET -3.37035 -0.52449 3.41376
                  CHANNELS 3 Zrotation Xrotation Yrotation
                  End Site
                  {
                    OFFSET -1.78271 -1.18214 1.43049
                  }
                }
              }
              JOINT rIndex1
              {
                OFFSET -7.75947 0.938293 5.60832
                CHANNELS 3 Zrotation Xrotation Yrotation
                JOINT rIndex2
                {
                  OFFSET -2.54057 -0.884171 1.56538
                  CHANNELS 3 Zrotation Xrotation Yrotation
                  End Site
                  {
                    OFFSET -1.62519 -0.234802 1.16502
                  }
                }
              }
              JOINT rMid1
              {
                OFFSET -8.24714 1.18213 3.41376
                CHANNELS 3 Zrotation Xrotation Yrotation
                JOINT rMid2
                {
                  OFFSET -3.10165 -0.590103 1.0647
                  CHANNELS 3 Zrotation Xrotation Yrotation
                  End Site
                  {
                    OFFSET -2.48547 -0.328903 0.83742
                  }
                }
              }
              JOINT rRing1
              {
                OFFSET -8.82822 0.546677 1.51678
                CHANNELS 3 Zrotation Xrotation Yrotation
                JOINT rRing2
                {
                  OFFSET -2.60934 -0.819778 -0.0198488
                  CHANNELS 3 Zrotation Xrotation Yrotation
                  End Site
                  {
                    OFFSET -2.33842 -0.294052 0.168128
                  }
                }
              }
              JOINT rPinky1
              {
                OFFSET -8.27202 -0.0477905 -0.4584
                CHANNELS 3 Zrotation Xrotation Yrotation
                JOINT rPinky2
                {
                  OFFSET -1.82734 -0.647385 -0.700984
                  CHANNELS 3 Zrotation Xrotation Yrotation
                  End Site
                  {
                    OFFSET -1.69225 -0.51767 -0.607171
                  }
                }
              }
            }
          }
        }
      }
      JOINT lCollar
      {
        OFFSET 2.68224 19.2634 -4.8768
        CHANNELS 3 Zrotation Xrotation Yrotation
        JOINT lShldr
        {
          OFFSET 8.77824 -1.95073 1.46304
          CHANNELS 3 Zrotation Xrotation Yrotation
          JOINT lForeArm
          {
            OFFSET 28.1742 -1.7115 0.48768
            CHANNELS 3 Zrotation Xrotation Yrotation
            JOINT lHand
            {
              OFFSET 22.5879 0.773209 7.07136
              CHANNELS 3 Zrotation Xrotation Yrotation
              JOINT lThumb1
              {
                OFFSET 1.2192 -0.487915 3.41376
                CHANNELS 3 Zrotation Xrotation Yrotation
                JOINT lThumb2
                {
                  OFFSET 3.37035 -0.52449 3.41376
                  CHANNELS 3 Zrotation Xrotation Yrotation
                  End Site
                  {
                    OFFSET 1.78271 -1.18214 1.43049
                  }
                }
              }
              JOINT lIndex1
              {
                OFFSET 7.75947 0.938293 5.60832
                CHANNELS 3 Zrotation Xrotation Yrotation
                JOINT lIndex2
                {
                  OFFSET 2.54057 -0.884171 1.56538
                  CHANNELS 3 Zrotation Xrotation Yrotation
                  End Site
                  {
                    OFFSET 1.62519 -0.234802 1.16502
                  }
                }
              }
              JOINT lMid1
              {
                OFFSET 8.24714 1.18213 3.41376
                CHANNELS 3 Zrotation Xrotation Yrotation
                JOINT lMid2
                {
                  OFFSET 3.10165 -0.590103 1.0647
                  CHANNELS 3 Zrotation Xrotation Yrotation
                  End Site
                  {
                    OFFSET 2.48547 -0.328903 0.83742
                  }
                }
              }
              JOINT lRing1
              {
                OFFSET 8.82822 0.546677 1.51678
                CHANNELS 3 Zrotation Xrotation Yrotation
                JOINT lRing2
                {
                  OFFSET 2.60934 -0.819778 -0.0198488
                  CHANNELS 3 Zrotation Xrotation Yrotation
                  End Site
                  {
                    OFFSET 2.33842 -0.294052 0.168128
                  }
                }
              }
              JOINT lPinky1
              {
                OFFSET 8.27202 -0.0477905 -0.4584
                CHANNELS 3 Zrotation Xrotation Yrotation
                JOINT lPinky2
                {
                  OFFSET 1.82734 -0.647385 -0.700984
                  CHANNELS 3 Zrotation Xrotation Yrotation
                  End Site
                  {
                    OFFSET 1.69225 -0.51767 -0.607171
                  }
                }
              }
            }
          }
        }
      }
    }
  }
  JOINT rButtock
  {
    OFFSET -8.77824 4.35084 1.2192
    CHANNELS 3 Zrotation Xrotation Yrotation
    JOINT rThigh
    {
      OFFSET 0 -1.70687 -2.19456
      CHANNELS 3 Zrotation Xrotation Yrotation
      JOINT rShin
      {
        OFFSET 0 -36.8199 0.73152
        CHANNELS 3 Zrotation Xrotation Yrotation
        JOINT rFoot
        {
          OFFSET 0.73152 -45.1104 -5.12064
          CHANNELS 3 Zrotation Xrotation Yrotation
          End Site
          {
            OFFSET -1.1221 -3.69964 12.103
          }
        }
      }
    }
  }
  JOINT lButtock
  {
    OFFSET 8.77824 4.35084 1.2192
    CHANNELS 3 Zrotation Xrotation Yrotation
    JOINT lThigh
    {
      OFFSET 0 -1.70687 -2.19456
      CHANNELS 3 Zrotation Xrotation Yrotation
      JOINT lShin
      {
        OFFSET 0 -36.8199 0.73152
        CHANNELS 3 Zrotation Xrotation Yrotation
        JOINT lFoot
        {
          OFFSET -0.73152 -45.1104 -5.12064
          CHANNELS 3 Zrotation Xrotation Yrotation
          End Site
          {
            OFFSET 1.1221 -3.69964 12.103
          }
        }
      }
    }
  }
}
MOTION
Frames:	5
Frame Time:	0.00833333
0.0657671 -104.382 5.85496 0.0 0.0 0.0 1.08559 -0.00409457 0.0298871 0.299316 -0.00346994 0.0518518 -1.4572e-14 1.59028e-15 1.24241e-17 -4.34065e-14 9.54166e-15 -4.65902e-18 -0.0 0.0 0.0 -0.0 0.0 0.0 -7.05835e-15 1.16475e-17 1.49089e-16 -1.50753e-13 3.10601e-17 1.98785e-16 -2.61819e-12 7.90765e-13 1.90833e-14 -2.99698e-11 -7.39429e-13 -2.8625e-14 -7.0695e-11 1.14814e-13 9.54166e-15 -1.22099e-10 1.97194e-13 1.43125e-14 -7.0691e-11 1.14898e-13 -3.18055e-15 7.73091 5.47488 0.417314 -7.06953e-11 1.14599e-13 9.54166e-15 2.90554 0.965183 0.102902 -7.06963e-11 1.14003e-13 9.54166e-15 10.2786 0.731801 0.0259123 -7.07059e-11 1.18873e-13 1.59028e-14 2.22167 -0.733487 -0.20892 -7.35402e-15 1.32005e-17 -9.93923e-17 -1.52678e-13 2.85753e-16 -1.19271e-15 -2.6171e-12 -7.75061e-13 1.27222e-14 -2.99648e-11 8.29678e-13 -6.36111e-15 -7.0676e-11 1.18644e-13 1.27222e-14 -1.22041e-10 2.00375e-13 2.70347e-14 -7.06783e-11 1.18873e-13 2.54444e-14 -7.73091 5.47488 -0.417314 -7.06753e-11 1.17482e-13 6.36111e-15 -2.90554 0.965183 -0.102902 -7.06791e-11 1.18277e-13 1.35174e-14 -10.2786 0.731801 -0.0259123 -7.06689e-11 1.22451e-13 9.54166e-15 -2.22167 -0.733487 0.20892 -2.03217e-16 0.0 -3.88251e-19 1.34458 -5.65583 -0.118068 0.000407598 4.68844 0.0309312 -0.530869 0.965564 0.0803219 2.03217e-16 0.0 3.88251e-19 0.319342 -1.92005 0.0117661 0.00930536 -2.07855 0.0768763 0.503641 3.99667 -0.13904
0.671595 -119.81 5.83269 0.0 0.0 0.0 0.892347 0.17532 0.0280165 0.288843 0.35428 0.0492989 -1.12868e-14 4.375 -4.05858e-17 -2.84919e-11 -8.75 -8.70646e-11 -0.0 0.0 0.0 -0.0 0.0 0.0 -5.50059e-15 -8.61008e-16 1.355e-16 -2.1875 1.29107e-09 7.13216e-11 -2.22931e-12 3.88158e-14 -3.13583e-14 -2.44096e-11 -3.69548e-12 -6.34794e-13 -5.77925e-11 -7.92549e-12 -1.42283e-12 -9.98174e-11 -1.36864e-11 -2.45754e-12 -5.77884e-11 -7.9251e-12 -1.43468e-12 7.73091 5.47488 0.417314 -5.77926e-11 -7.92586e-12 -1.42283e-12 2.90554 0.965183 0.102902 -5.77935e-11 -7.92624e-12 -1.42196e-12 10.2786 0.731801 0.0259123 -5.78012e-11 -7.92243e-12 -1.4156e-12 2.22167 -0.733487 -0.20892 -5.70472e-15 -8.60092e-16 -1.2657e-16 2.1875 1.29107e-09 -7.13224e-11 -1.81306e-12 -1.18338e-12 3.44643e-14 -2.18736e-11 -2.54824e-12 3.77169e-13 -5.1385e-11 -8.0899e-12 8.85014e-13 -8.87319e-11 -1.39728e-11 1.53354e-12 -5.13882e-11 -8.08996e-12 8.98606e-13 -7.73091 5.47488 -0.417314 -5.13848e-11 -8.09099e-12 8.79523e-13 -2.90554 0.965183 -0.102902 -5.1389e-11 -8.0902e-12 8.86027e-13 -10.2786 0.731801 -0.0259123 -5.1379e-11 -8.08616e-12 8.81834e-13 -2.22167 -0.733487 0.20892 -2.03217e-16 0.0 -3.88251e-19 -12.2405 -4.7189 0.0164572 0.0111455 2.83193 0.400639 7.10502 1.41057 -0.964867 2.03217e-16 0.0 3.88251e-19 13.3173 -2.01398 -0.0888851 -0.035033 -2.08452 -0.315442 -6.94324 3.63611 0.897598
0.671595 -119.81 5.83269 0.0 0.0 0.0 0.688071 0.364988 0.0260394 0.277807 0.732473 0.046602 -7.80503e-15 9.0 -9.75831e-17 -8.88373e-11 -18.0 -1.8613e-10 -0.0 0.0 0.0 -0.0 0.0 0.0 -3.85382e-15 -1.78353e-15 1.21134e-16 -4.5 2.65591e-09 1.46719e-10 -1.8182e-12 -7.56102e-13 -8.46823e-14 -1.85316e-11 -6.82045e-12 -1.2756e-12 -4.41526e-11 -1.64252e-11 -2.93704e-12 -7.62629e-11 -2.83634e-11 -5.07065e-12 -4.41485e-11 -1.64245e-11 -2.94798e-12 7.73091 5.47488 0.417314 -4.41526e-11 -1.64258e-11 -2.93704e-12 2.90554 0.965183 0.102902 -4.41534e-11 -1.64259e-11 -2.93525e-12 10.2786 0.731801 0.0259123 -4.41591e-11 -1.64232e-11 -2.92889e-12 2.22167 -0.733487 -0.20892 -3.96116e-15 -1.78329e-15 -1.55301e-16 4.5 2.65591e-09 -1.46719e-10 -9.63084e-13 -1.61503e-12 5.74488e-14 -1.332e-11 -6.11918e-12 7.82615e-13 -3.09915e-11 -1.67675e-11 1.80715e-12 -5.35193e-11 -2.8956e-11 3.12614e-12 -3.09958e-11 -1.67679e-11 1.82166e-12 -7.73091 5.47488 -0.417314 -3.09921e-11 -1.67685e-11 1.80258e-12 -2.90554 0.965183 -0.102902 -3.09966e-11 -1.67677e-11 1.80839e-12 -10.2786 0.731801 -0.0259123 -3.09869e-11 -1.67638e-11 1.80397e-12 -2.22167 -0.733487 0.20892 -2.03217e-16 0.0 -3.88251e-19 -26.6067 -3.7284 0.158282 0.0485467 0.869386 0.790666 15.1949 1.88018 -2.07028 2.03217e-16 0.0 3.88251e-19 27.0576 -2.11328 -0.195301 -0.0819938 -2.09073 -0.730182 -14.8014 3.25388 1.99261
0.671595 -119.81 5.83269 0.0 0.0 0.0 0.50589 0.53415 0.0242762 0.267994 1.06978 0.0441981 -4.69168e-15 13.125 -1.50174e-16 -1.72963e-10 -26.25 -2.87838e-10 -0.0 0.0 0.0 -0.0 0.0 0.0 -2.38507e-15 -2.60632e-15 1.08322e-16 -6.5625 3.8732e-09 2.13965e-10 -1.45154e-12 -1.46508e-12 -1.32241e-13 -1.32891e-11 -9.60759e-12 -1.84713e-12 -3.19873e-11 -2.40061e-11 -4.28756e-12 -5.52549e-11 -4.14537e-11 -7.40126e-12 -3.19832e-11 -2.40051e-11 -4.29768e-12 7.73091 5.47488 0.417314 -3.19872e-11 -2.40068e-11 -4.28756e-12 2.90554 0.965183 0.102902 -3.19879e-11 -2.40067e-11 -4.28495e-12 10.2786 0.731801 0.0259123 -3.19919e-11 -2.4005e-11 -4.27859e-12 2.22167 -0.733487 -0.20892 -2.4061e-15 -2.60668e-15 -1.80925e-16 6.5625 3.8732e-09 -2.13965e-10 -2.04993e-13 -2.00001e-12 7.79484e-14 -5.69116e-12 -9.30407e-12 1.14423e-12 -1.28028e-11 -2.4507e-11 2.6296e-12 -2.21135e-11 -4.23193e-11 4.54656e-12 -1.2808e-11 -2.45076e-11 2.64493e-12 -7.73091 5.47488 -0.417314 -1.28039e-11 -2.45079e-11 2.62585e-12 -2.90554 0.965183 -0.102902 -1.28087e-11 -2.45071e-11 2.63105e-12 -10.2786 0.731801 -0.0259123 -1.27993e-11 -2.45034e-11 2.62642e-12 -2.22167 -0.733487 0.20892 -2.03217e-16 0.0 -3.88251e-19 -39.424 -2.84498 0.284541 0.104457 -0.880721 1.13893 22.4255 2.2979 -3.05681 2.03217e-16 0.0 3.88251e-19 39.3121 -2.20184 -0.290224 -0.123954 -2.09617 -1.10009 -21.7978 2.91239 2.96861
0.671595 -119.81 5.83269 0.0 0.0 0.0 0.378921 0.652051 0.0230473 0.261171 1.30487 0.0425232 -2.51709e-15 16.0 -1.88303e-16 -2.52294e-10 -32.0 -3.7109e-10 -0.0 0.0 0.0 -0.0 0.0 0.0 -1.3614e-15 -3.17978e-15 9.93923e-17 -8.0 4.72161e-09 2.60833e-10 -1.19599e-12 -1.95922e-12 -1.65389e-13 -9.6352e-12 -1.15501e-11 -2.24547e-12 -2.35085e-11 -2.92897e-11 -5.22883e-12 -4.06129e-11 -5.05772e-11 -9.02562e-12 -2.35043e-11 -2.92885e-11 -5.23837e-12 7.73091 5.47488 0.417314 -2.35083e-11 -2.92905e-11 -5.22883e-12 2.90554 0.965183 0.102902 -2.3509e-11 -2.92903e-11 -5.22565e-12 10.2786 0.731801 0.0259123 -2.35117e-11 -2.92893e-11 -5.21929e-12 2.22167 -0.733487 -0.20892 -1.32227e-15 -3.18055e-15 -1.98785e-16 8.0 4.72161e-09 -2.60833e-10 3.23373e-13 -2.26833e-12 9.22361e-14 -3.74088e-13 -1.15238e-11 1.39626e-12 -1.25827e-13 -2.99012e-11 3.20282e-12 -2.24627e-13 -5.16331e-11 5.53655e-12 -1.31595e-13 -2.9902e-11 3.21872e-12 -7.73091 5.47488 -0.417314 -1.27371e-13 -2.99021e-11 3.19964e-12 -2.90554 0.965183 -0.102902 -1.32372e-13 -2.99013e-11 3.20441e-12 -10.2786 0.731801 -0.0259123 -1.23048e-13 -2.98976e-11 3.19964e-12 -2.22167 -0.733487 0.20892 -2.03217e-16 0.0 -3.88251e-19 -48.3595 -2.22926 0.37246 0.156023 -2.10024 1.38242 27.4735 2.5882 -3.74481 2.03217e-16 0.0 3.88251e-19 47.853 -2.26356 -0.35639 -0.153241 -2.09991 -1.3579 -26.6672 2.67421 3.64856
